<mxfile host="app.diagrams.net" modified="2024-01-18T14:38:17.366Z" agent="Mozilla/5.0 (Windows NT 10.0; Win64; x64) AppleWebKit/537.36 (KHTML, like Gecko) Chrome/120.0.0.0 Safari/537.36" version="22.1.20" etag="pQo_gHkS1UijNzQKVYu_" type="github">
  <diagram name="Page-1" id="aagB6ucqYkJwt-__MaZ_">
    <mxGraphModel>
      <root>
        <mxCell id="0" />
        <mxCell id="1" parent="0" />
      </root>
    </mxGraphModel>
  </diagram>
</mxfile>
